<?xml version="1.0" encoding="UTF-8"?>
<!DOCTYPE svg PUBLIC "-//W3C//DTD SVG 1.1//EN" "http://www.w3.org/Graphics/SVG/1.1/DTD/svg11.dtd">
<!-- Creator: CorelDRAW 2020 (64-Bit) -->
<svg xmlns="http://www.w3.org/2000/svg" xml:space="preserve" width="105mm" height="23mm" version="1.1" style="shape-rendering:geometricPrecision; text-rendering:geometricPrecision; image-rendering:optimizeQuality; fill-rule:evenodd; clip-rule:evenodd"
viewBox="0 0 10500 2300"
 xmlns:xlink="http://www.w3.org/1999/xlink"
 xmlns:xodm="http://www.corel.com/coreldraw/odm/2003">
 <defs>
  <style type="text/css">
   <![CDATA[
    .fil0 {fill:#646469;fill-rule:nonzero}
    .fil1 {fill:#FF732D;fill-rule:nonzero}
   ]]>
  </style>
 </defs>
 <g id="Слой_x0020_1">
  <metadata id="CorelCorpID_0Corel-Layer"/>
  <g id="_2241252743968">
   <g>
    <path class="fil0" d="M10446.21 1773.19l-258.79 0c-14.59,0 -26.62,-11.95 -26.62,-26.61l0 -198.53c0,-17.44 4.85,-32.42 14.96,-46.56 76.66,-106.83 191.08,-239.33 275.16,-321.17 3.75,-3.65 9.4,-4.16 14.19,-1.92 4.79,2.24 7.71,6.81 7.71,12.06l0 556.12c0,14.61 -12,26.61 -26.61,26.61zm-970.22 29.49c-183.36,-1.65 -334.93,-57.33 -454.52,-171.99 -119.56,-114.64 -179.34,-265.34 -179.34,-452.05 0,-175.27 57.73,-322.67 173.19,-442.26 115.49,-119.56 262.49,-179.34 441.03,-179.34 176.89,0 320.51,59.92 429.93,180.6 71.63,78.99 118.5,174.28 144.42,285.35 39.37,179.87 -64.83,259.91 -227.75,256.37l-602.43 0c-8.2,0 -15.57,3.46 -20.79,10 -5.22,6.55 -7,14.32 -5.17,22.49 14.59,64.34 47.94,119.06 99.98,164.07 60.6,52.38 139.22,79.1 235.84,78.62 331,-1.7 544.7,-280.37 635.38,-457 7.99,-15.52 15.04,-29.17 15.04,-46.63l0 -809.99c0,-14.66 11.95,-26.61 26.62,-26.61l258.79 0c14.66,0 26.61,12 26.61,26.61l-0.1 835.11c0,4.18 -2.05,7.59 -5.14,10.46 -383.83,358.5 -460.14,721.01 -991.59,716.19zm268.75 -765.96c-9.93,-54.77 -35.22,-104.97 -75.89,-150.46 -48.28,-54.06 -119.16,-81.07 -212.5,-81.07 -88.44,0 -157.25,26.61 -206.38,79.85 -41.28,44.71 -68.11,94.96 -80.49,150.64 -1.81,8.15 0,15.92 5.22,22.44 5.21,6.52 12.4,9.96 20.76,9.96l523.09 0c8.17,0 15.2,-3.28 20.41,-9.56 5.25,-6.25 7.24,-13.76 5.78,-21.8z"/>
    <path class="fil0" d="M8453 1773.19l-300.6 0c-11.1,0 -20.58,-6.38 -24.7,-16.69l-455.28 -1133.42c-3.4,-8.46 -2.44,-17.27 2.67,-24.83 5.08,-7.54 12.93,-11.71 22.03,-11.71l276.33 0c11.32,0 20.95,6.68 24.92,17.27l278.19 741.77c3.97,10.59 13.6,17.27 24.91,17.27 11.31,0 20.95,-6.68 24.92,-17.27l278.16 -741.77c3.97,-10.59 13.6,-17.27 24.91,-17.27l278.78 0c9.11,0 16.96,4.17 22.04,11.71 5.11,7.56 6.07,16.37 2.66,24.83l-455.24 1133.42c-4.13,10.31 -13.6,16.69 -24.7,16.69z"/>
    <path class="fil0" d="M7713.68 1773.19l-258.79 0c-14.64,0 -26.62,-11.95 -26.62,-26.61l0 -31.2c0,-10.67 -5.85,-19.8 -15.57,-24.22 -9.71,-4.42 -20.46,-2.85 -28.5,4.15 -82.3,71.55 -192.92,107.37 -331.83,107.37 -106.46,0 -201.88,-34.84 -286.2,-104.41 -84.35,-69.6 -126.53,-165.85 -126.53,-288.68 0,-127.76 41.38,-223.6 124.05,-287.46 82.7,-63.85 178.94,-95.81 288.68,-95.81 141.1,0 251.79,33.82 332.15,101.35 8.09,6.81 18.76,8.22 28.37,3.75 9.61,-4.47 15.38,-13.55 15.38,-24.14l0 -69.09c0,-245.11 -399.53,-284.96 -695.8,-147.88 -220.01,101.67 -315.91,288.97 -429.4,497.4 -114.47,210.27 -281.2,421.28 -542.7,414.76 -109.69,-2.69 -193.26,-27.84 -250.59,-83.55 -83.55,-81.15 -82.11,-168.45 -82.11,-273.8l0 -507.06 0 -649.2c0,-14.67 11.95,-26.64 26.61,-26.64l261.24 0c14.67,0 26.62,12 26.62,26.61l0 271.09c0,14.56 11.95,26.62 26.61,26.62l187.54 0c14.67,0 26.62,12 26.62,26.61l0 219.48c0,14.61 -12.01,26.61 -26.62,26.61l-187.54 0c-14.61,0 -26.61,12.04 -26.61,26.62l0 508.77c-0.27,37.64 6.01,68.83 25.6,93.34 31.25,39.1 77.64,46.64 126.77,35 78.23,-33.51 142.83,-109.55 199.84,-197.86 8.7,-13.5 12.77,-27.26 12.77,-43.31l0 -668.65c0,-14.66 11.96,-26.61 26.62,-26.61l258.79 0c14.67,0 26.62,11.95 26.62,26.61l0 155.49c0,11.37 6.76,21.08 17.43,25 7.98,2.95 16.4,1.97 23.21,-2.32 378.27,-356.36 1280.51,-339.12 1280.51,241.94l0 713.32c0,14.61 -12.03,26.61 -26.62,26.61zm-1293.92 -438.05l-0.61 411.44c0,14.61 -12.01,26.61 -26.62,26.61l-258.79 0c-14.66,0 -26.62,-11.95 -26.62,-26.61l0 -5.62c0,-8.17 3.28,-15.2 9.56,-20.44 86.34,-72.1 185.17,-218.71 224.77,-293.52 19.27,-36.36 36.87,-68.91 53.4,-98.38 3,-5.35 9.02,-7.93 14.95,-6.36 5.97,1.54 9.96,6.73 9.96,12.88zm757.92 256.24c111.92,0 193.5,-31.92 244.71,-95.58 3.94,-4.93 5.88,-10.35 5.88,-16.66l0 -129.3c0,-6.31 -1.94,-11.74 -5.88,-16.67 -51.21,-63.66 -132.79,-95.58 -244.71,-95.58 -63.88,0 -117.11,15.97 -159.7,47.91 -42.58,31.94 -63.87,75.75 -63.87,131.43 0,54.06 21.32,96.67 63.87,127.76 42.56,31.12 95.82,46.69 159.7,46.69z"/>
   </g>
   <path class="fil1" d="M4073.42 2212.77l37.32 -223.81c1.3,-7.75 5.43,-13.95 12.05,-18.13 6.63,-4.18 14.03,-5.21 21.54,-3.08 21.72,6.17 45.03,9.36 69.92,9.36 83.55,0 139.28,-28.24 164.62,-85.97l39.74 -90.52c2.98,-6.78 3.06,-13.68 0.32,-20.57l-269.17 -672.89c-104.53,-261.31 -308.01,-266.43 -495.78,-100.58 -209.87,185.36 -428.45,522.58 -563.1,633.89 -121.66,117.06 -273.19,162.23 -438.71,162.23 -143.81,0 -265.82,-34.55 -365.98,-103.51 -6.76,-4.66 -10.7,-11.39 -11.41,-19.56 -0.75,-8.18 1.94,-15.52 7.77,-21.3 58.37,-57.81 111.17,-123.23 153.76,-184.1 4.34,-6.23 10.38,-9.96 17.89,-11.07 7.5,-1.12 14.4,0.69 20.36,5.37 48.01,37.69 107.23,56.53 177.61,56.53 93.37,0 167.47,-33.16 222.35,-99.49 54.86,-66.35 82.3,-148.65 82.3,-246.92 0,-96.64 -27.44,-178.14 -82.3,-244.47 -54.88,-66.32 -128.98,-99.49 -222.35,-99.49 -93.37,0 -167.07,33.17 -221.13,99.49 -54.03,66.33 -81.07,147.83 -81.07,244.47 0,80.68 18.23,150.57 54.64,209.74 5.67,9.21 5.38,20.26 -0.8,29.15 -100.21,144.36 -213.81,268.02 -354.13,333.79 -81.18,35.77 -168.19,53.79 -264.14,51.37 -109.71,-2.72 -193.26,-27.84 -250.59,-83.55 -57.33,-55.68 -86,-135.93 -86,-240.77 0,-456.02 0,-912.09 0,-1368.1 0,-8.01 3.14,-14.91 9.21,-20.15 6.05,-5.22 13.31,-7.35 21.24,-6.2 99.55,14.45 189.4,31.7 262.47,48.76 12.67,2.4 21.63,13.33 21.63,26.16l-0.08 401.08c0,14.59 11.96,26.62 26.62,26.62l187.54 0c14.66,0 26.62,12 26.62,26.62l0 219.47c0,14.62 -12.01,26.62 -26.62,26.62l-187.54 0c-14.61,0 -26.62,12 -26.62,26.62l0 508.98c0,114.39 83.05,155.2 188.1,120.68 37.64,-14.32 73.94,-40.22 107.85,-74.77 7.37,-7.53 9.61,-17.96 5.96,-27.84 -26.43,-71.73 -39.66,-149.82 -39.66,-234.28 0,-175.26 56.91,-322.66 170.75,-442.25 113.84,-119.56 265.76,-179.34 455.75,-179.34 190.01,0 342.34,59.78 456.97,179.34 93.05,97.04 148.36,212.42 165.87,346.12 0.72,5.37 4.34,9.58 9.59,11.07 5.21,1.49 10.51,-0.19 13.94,-4.39 12.67,-15.55 25.29,-31.01 37.98,-46.21 4.13,-4.98 6.18,-10.54 6.18,-17.03l0 -412.79c0,-14.67 11.95,-26.62 26.62,-26.62l258.78 0c14.67,0 26.62,12.06 26.62,26.62l0 91.42c0,11.34 6.87,21.22 17.65,25.05 21.29,13.09 153.12,-128.8 320.03,-134.04 155.44,-4.87 319.32,86.66 406.59,319.5l161.35 430.49c3.94,10.49 13.6,17.28 24.91,17.28 11.31,0 20.95,-6.69 24.91,-17.28l278.17 -741.77c3.97,-10.59 13.6,-17.27 24.91,-17.27l278.7 0c9.13,0 16.98,4.18 22.07,11.74 5.08,7.56 5.98,16.47 2.6,24.86l-542.91 1344.14c-42.08,104.23 -98.3,178.15 -172,219.91 -73.7,41.76 -166.24,65.47 -277.63,67.55 -46.98,0.88 -90.34,-3.62 -129.68,-11.53 -14,-2.82 -23.34,-16.31 -20.97,-30.45zm-2719.35 -1813.86c-258.37,-50.79 -878.71,-94.33 -889.57,153.2 -2.58,58.95 41.6,101.25 103.19,132.09 189.72,94.71 300.39,64.28 531.29,197.76 145.35,84.03 255.38,211.28 240.08,412.1 -49.62,651.06 -846.93,516.73 -1305.85,429.59 -12.38,-2.34 -21.64,-13.26 -21.64,-26.17l0 -291.04c0,-8.55 3.67,-15.89 10.41,-21.11 6.73,-5.22 15.17,-6.71 23.1,-4.58 239.97,64.25 921.91,226.77 935.96,-96.08 2.32,-53.45 -34.01,-93.51 -86.95,-123.45 -127.42,-71.94 -300.79,-89.94 -470.02,-166.75 -181.36,-82.32 -335.6,-216.2 -317.59,-451.76 37.85,-494.58 733.42,-532.3 1255.65,-473.85 13.52,1.52 23.66,12.83 23.66,26.43l0 277.5c0,8.23 -3.35,15.31 -9.68,20.55 -6.37,5.22 -13.98,7.14 -22.04,5.57zm2310.34 714.06c-6.26,30.42 -9.69,63.42 -9.69,98.72l0 534.9c0,14.59 -12.03,26.62 -26.62,26.62l-258.78 0c-14.67,0 -26.62,-11.95 -26.62,-26.62l0 -276.67c0,-5.75 1.57,-10.68 4.9,-15.36 96.91,-136.92 197.09,-251.47 294.13,-353.47 4.13,-4.36 10.49,-5.4 15.84,-2.6 5.32,2.79 8.06,8.57 6.84,14.48z"/>
  </g>
 </g>
</svg>
