<?xml version="1.0" encoding="utf-8"?>
<svg version="1.1" xmlns="http://www.w3.org/2000/svg" xmlns:xlink="http://www.w3.org/1999/xlink" viewBox="0 0 256 256">
<style type="text/css">
	.st0{fill:none;stroke:#FF5C00;stroke-width:9;stroke-miterlimit:10;}
	.st1{fill:#FF5C00;}
</style>
<circle class="st0" cx="128" cy="128" r="121"/>
<g>
	<path class="st1" d="M128,74.7c17.4,0,19.4,0.1,26.3,0.4c6.3,0.3,9.8,1.3,12.1,2.2c3,1.2,5.2,2.6,7.5,4.9s3.7,4.4,4.9,7.5
		c0.9,2.3,2,5.7,2.2,12.1c0.3,6.9,0.4,8.9,0.4,26.3s-0.1,19.4-0.4,26.3c-0.3,6.3-1.3,9.8-2.2,12.1c-1.2,3-2.6,5.2-4.9,7.5
		c-2.3,2.3-4.4,3.7-7.5,4.9c-2.3,0.9-5.7,2-12.1,2.2c-6.9,0.3-8.9,0.4-26.3,0.4s-19.4-0.1-26.3-0.4c-6.3-0.3-9.8-1.3-12.1-2.2
		c-3-1.2-5.2-2.6-7.5-4.9c-2.3-2.3-3.7-4.4-4.9-7.5c-0.9-2.3-2-5.7-2.2-12.1c-0.3-6.9-0.4-8.9-0.4-26.3s0.1-19.4,0.4-26.3
		c0.3-6.3,1.3-9.8,2.2-12.1c1.2-3,2.6-5.2,4.9-7.5s4.4-3.7,7.5-4.9c2.3-0.9,5.7-2,12.1-2.2C108.6,74.7,110.6,74.7,128,74.7
		 M128,62.9c-17.7,0-19.9,0.1-26.8,0.4c-6.9,0.3-11.7,1.4-15.8,3c-4.3,1.7-7.9,3.9-11.5,7.5s-5.8,7.2-7.5,11.5
		c-1.6,4.1-2.7,8.9-3,15.8s-0.4,9.2-0.4,26.8c0,17.7,0.1,19.9,0.4,26.8c0.3,6.9,1.4,11.7,3,15.8c1.7,4.3,3.9,7.9,7.5,11.5
		s7.2,5.8,11.5,7.5c4.1,1.6,8.9,2.7,15.8,3s9.2,0.4,26.8,0.4s19.9-0.1,26.8-0.4c6.9-0.3,11.7-1.4,15.8-3c4.3-1.7,7.9-3.9,11.5-7.5
		s5.8-7.2,7.5-11.5c1.6-4.1,2.7-8.9,3-15.8c0.3-6.9,0.4-9.2,0.4-26.8s-0.1-19.9-0.4-26.8c-0.3-6.9-1.4-11.7-3-15.8
		c-1.7-4.3-3.9-7.9-7.5-11.5s-7.2-5.8-11.5-7.5c-4.1-1.6-8.9-2.7-15.8-3C147.9,63,145.7,62.9,128,62.9L128,62.9z"/>
	<path class="st1" d="M128,94.6c-18.5,0-33.4,15-33.4,33.4s15,33.4,33.4,33.4s33.4-15,33.4-33.4S146.5,94.6,128,94.6z M128,149.7
		c-12,0-21.7-9.7-21.7-21.7s9.7-21.7,21.7-21.7s21.7,9.7,21.7,21.7S140,149.7,128,149.7z"/>
	<circle class="st1" cx="162.7" cy="93.3" r="7.8"/>
</g>
</svg>
