<?xml version="1.0" encoding="UTF-8"?>
<!DOCTYPE svg PUBLIC "-//W3C//DTD SVG 1.1//EN" "http://www.w3.org/Graphics/SVG/1.1/DTD/svg11.dtd">
<!-- Creator: CorelDRAW 2020 (64-Bit) -->
<svg xmlns="http://www.w3.org/2000/svg" xml:space="preserve" width="105mm" height="23mm" version="1.1" style="shape-rendering:geometricPrecision; text-rendering:geometricPrecision; image-rendering:optimizeQuality; fill-rule:evenodd; clip-rule:evenodd"
viewBox="0 0 10500 2300"
 xmlns:xlink="http://www.w3.org/1999/xlink"
 xmlns:xodm="http://www.corel.com/coreldraw/odm/2003">
 <defs>
  <style type="text/css">
   <![CDATA[
    .fil0 {fill:#FEFEFE;fill-rule:nonzero}
   ]]>
  </style>
 </defs>
 <g id="Слой_x0020_1">
  <metadata id="CorelCorpID_0Corel-Layer"/>
  <g id="_2241395102240">
   <path class="fil0" d="M10446.21 1773.19l-258.79 0c-14.58,0 -26.62,-11.94 -26.62,-26.62l0 -198.52c0,-17.43 4.84,-32.42 14.96,-46.57 76.65,-106.82 191.09,-239.33 275.15,-321.16 3.75,-3.65 9.41,-4.14 14.18,-1.93 4.81,2.26 7.74,6.84 7.74,12.07l0 556.11c0,14.62 -12,26.62 -26.62,26.62zm-2732.52 0l-258.8 0c-14.63,0 -26.62,-11.94 -26.62,-26.62l0 -31.18c0,-10.67 -5.85,-19.81 -15.57,-24.23 -9.7,-4.41 -20.47,-2.84 -28.51,4.14 -82.29,71.56 -192.9,107.37 -331.82,107.37 -106.47,0 -201.88,-34.82 -286.21,-104.4 -84.34,-69.6 -126.52,-165.86 -126.52,-288.68 0,-127.77 41.38,-223.6 124.05,-287.46 82.7,-63.84 178.95,-95.82 288.68,-95.82 141.08,0 251.79,33.84 332.14,101.37 8.09,6.8 18.77,8.22 28.38,3.75 9.61,-4.48 15.38,-13.54 15.38,-24.15l0 -69.09c0,-245.11 -399.54,-284.96 -695.81,-147.88 -220,101.67 -315.9,288.98 -429.4,497.4 -114.45,210.27 -281.19,421.27 -542.7,414.75 -109.67,-2.67 -193.24,-27.82 -250.59,-83.54 -83.55,-81.15 -82.1,-168.44 -82.1,-273.81l0 -507.06 0 -649.2c0,-14.66 11.95,-26.64 26.62,-26.64l261.22 0c14.68,0 26.62,12 26.62,26.62l0 271.09c0,14.55 11.96,26.62 26.62,26.62l187.53 0c14.67,0 26.62,12 26.62,26.62l0 219.46c0,14.63 -12,26.63 -26.62,26.63l-187.53 0c-14.62,0 -26.62,12.02 -26.62,26.62l0 508.77c-0.26,37.63 6.02,68.82 25.61,93.34 31.24,39.09 77.63,46.62 126.77,34.99 78.23,-33.51 142.83,-109.55 199.84,-197.86 8.7,-13.49 12.77,-27.26 12.77,-43.31l0 -668.64c0,-14.66 11.96,-26.62 26.62,-26.62l258.79 0c14.66,0 26.63,11.96 26.63,26.62l0 155.48c0,11.37 6.75,21.08 17.41,24.99 7.99,2.95 16.4,1.96 23.22,-2.3 378.27,-356.37 1280.5,-339.13 1280.5,241.93l0 713.31c0,14.62 -12.02,26.62 -26.6,26.62zm-1293.94 -438.04l-0.59 411.42c0,14.62 -12,26.62 -26.63,26.62l-258.79 0c-14.66,0 -26.62,-11.94 -26.62,-26.62l0 -5.61c0,-8.17 3.28,-15.19 9.56,-20.44 86.34,-72.1 185.17,-218.7 224.78,-293.54 19.25,-36.34 36.87,-68.91 53.38,-98.34 3.01,-5.37 9.03,-7.95 14.97,-6.38 5.96,1.55 9.94,6.75 9.94,12.89zm757.93 256.24c111.92,0 193.5,-31.92 244.71,-95.6 3.94,-4.93 5.88,-10.34 5.88,-16.65l0 -129.31c0,-6.31 -1.94,-11.73 -5.88,-16.66 -51.21,-63.65 -132.79,-95.57 -244.71,-95.57 -63.87,0 -117.11,15.96 -159.69,47.9 -42.59,31.94 -63.89,75.75 -63.89,131.43 0,54.06 21.33,96.68 63.89,127.75 42.55,31.12 95.82,46.71 159.69,46.71zm1275.32 181.8l-300.61 0c-11.09,0 -20.58,-6.39 -24.7,-16.68l-455.26 -1133.44c-3.41,-8.45 -2.46,-17.25 2.66,-24.83 5.07,-7.52 12.93,-11.7 22.05,-11.7l276.31 0c11.33,0 20.96,6.68 24.92,17.28l278.19 741.76c3.96,10.6 13.61,17.28 24.91,17.28 11.32,0 20.95,-6.68 24.91,-17.28l278.17 -741.76c3.96,-10.6 13.6,-17.28 24.91,-17.28l278.78 0c9.12,0 16.95,4.18 22.04,11.7 5.11,7.58 6.06,16.38 2.67,24.83l-455.25 1133.44c-4.12,10.29 -13.61,16.68 -24.7,16.68zm1023 29.48c-183.37,-1.64 -334.95,-57.32 -454.54,-171.99 -119.55,-114.62 -179.32,-265.33 -179.32,-452.03 0,-175.27 57.72,-322.68 173.17,-442.27 115.5,-119.55 262.49,-179.33 441.04,-179.33 176.9,0 320.51,59.9 429.93,180.59 71.62,78.99 118.51,174.27 144.42,285.35 39.36,179.86 -64.85,259.91 -227.76,256.36l-602.42 0c-8.2,0 -15.57,3.46 -20.78,10.02 -5.22,6.54 -7.02,14.31 -5.18,22.48 14.6,64.33 47.95,119.06 99.97,164.07 60.62,52.37 139.24,79.1 235.85,78.62 330.99,-1.71 544.7,-280.39 635.38,-456.99 7.99,-15.52 15.04,-29.18 15.04,-46.65l0 -809.97c0,-14.69 11.95,-26.62 26.62,-26.62l258.79 0c14.66,0 26.62,12 26.62,26.62l-0.1 835.11c0,4.17 -2.07,7.57 -5.15,10.46 -383.84,358.49 -460.14,721 -991.58,716.17zm268.73 -765.95c-9.92,-54.77 -35.21,-104.98 -75.88,-150.46 -48.27,-54.06 -119.16,-81.07 -212.5,-81.07 -88.43,0 -157.25,26.62 -206.39,79.85 -41.27,44.7 -68.1,94.95 -80.47,150.65 -1.82,8.14 0,15.92 5.21,22.44 5.22,6.51 12.39,9.95 20.75,9.95l523.1 0c8.16,0 15.2,-3.27 20.41,-9.56 5.24,-6.25 7.23,-13.75 5.77,-21.8z"/>
   <path class="fil0" d="M4073.42 2212.77l37.32 -223.81c1.3,-7.75 5.43,-13.95 12.05,-18.13 6.63,-4.18 14.03,-5.21 21.54,-3.08 21.72,6.17 45.03,9.36 69.92,9.36 83.55,0 139.28,-28.24 164.62,-85.97l39.74 -90.52c2.98,-6.78 3.06,-13.68 0.32,-20.57l-269.17 -672.89c-104.53,-261.31 -308.01,-266.43 -495.78,-100.58 -209.87,185.36 -428.45,522.58 -563.1,633.89 -121.66,117.06 -273.19,162.23 -438.71,162.23 -143.81,0 -265.82,-34.55 -365.98,-103.51 -6.76,-4.66 -10.7,-11.39 -11.41,-19.56 -0.75,-8.18 1.94,-15.52 7.77,-21.3 58.37,-57.81 111.17,-123.23 153.76,-184.1 4.34,-6.23 10.38,-9.96 17.89,-11.07 7.5,-1.12 14.4,0.69 20.36,5.37 48.01,37.69 107.23,56.53 177.61,56.53 93.37,0 167.47,-33.16 222.35,-99.49 54.86,-66.35 82.3,-148.65 82.3,-246.92 0,-96.64 -27.44,-178.14 -82.3,-244.47 -54.88,-66.32 -128.98,-99.49 -222.35,-99.49 -93.37,0 -167.07,33.17 -221.13,99.49 -54.03,66.33 -81.07,147.83 -81.07,244.47 0,80.68 18.23,150.57 54.64,209.74 5.67,9.21 5.38,20.26 -0.8,29.15 -100.21,144.36 -213.81,268.02 -354.13,333.79 -81.18,35.77 -168.19,53.79 -264.14,51.37 -109.71,-2.72 -193.26,-27.84 -250.59,-83.55 -57.33,-55.68 -86,-135.93 -86,-240.77 0,-456.02 0,-912.09 0,-1368.1 0,-8.01 3.14,-14.91 9.21,-20.15 6.05,-5.22 13.31,-7.35 21.24,-6.2 99.55,14.45 189.4,31.7 262.47,48.76 12.67,2.4 21.63,13.33 21.63,26.16l-0.08 401.08c0,14.59 11.96,26.62 26.62,26.62l187.54 0c14.66,0 26.62,12 26.62,26.62l0 219.47c0,14.62 -12.01,26.62 -26.62,26.62l-187.54 0c-14.61,0 -26.62,12 -26.62,26.62l0 508.98c0,114.39 83.05,155.2 188.1,120.68 37.64,-14.32 73.94,-40.22 107.85,-74.77 7.37,-7.53 9.61,-17.96 5.96,-27.84 -26.43,-71.73 -39.66,-149.82 -39.66,-234.28 0,-175.26 56.91,-322.66 170.75,-442.25 113.84,-119.56 265.76,-179.34 455.75,-179.34 190.01,0 342.34,59.78 456.97,179.34 93.05,97.04 148.36,212.42 165.87,346.12 0.72,5.37 4.34,9.58 9.59,11.07 5.21,1.49 10.51,-0.19 13.94,-4.39 12.67,-15.55 25.29,-31.01 37.98,-46.21 4.13,-4.98 6.18,-10.54 6.18,-17.03l0 -412.79c0,-14.67 11.95,-26.62 26.62,-26.62l258.78 0c14.67,0 26.62,12.06 26.62,26.62l0 91.42c0,11.34 6.87,21.22 17.65,25.05 21.29,13.09 153.12,-128.8 320.03,-134.04 155.44,-4.87 319.32,86.66 406.59,319.5l161.35 430.49c3.94,10.49 13.6,17.28 24.91,17.28 11.31,0 20.95,-6.69 24.91,-17.28l278.17 -741.77c3.97,-10.59 13.6,-17.27 24.91,-17.27l278.7 0c9.13,0 16.98,4.18 22.07,11.74 5.08,7.56 5.98,16.47 2.6,24.86l-542.91 1344.14c-42.08,104.23 -98.3,178.15 -172,219.91 -73.7,41.76 -166.24,65.47 -277.63,67.55 -46.98,0.88 -90.34,-3.62 -129.68,-11.53 -14,-2.82 -23.34,-16.31 -20.97,-30.45zm-2719.35 -1813.86c-258.37,-50.79 -878.71,-94.33 -889.57,153.2 -2.58,58.95 41.6,101.25 103.19,132.09 189.72,94.71 300.39,64.28 531.29,197.76 145.35,84.03 255.38,211.28 240.08,412.1 -49.62,651.06 -846.93,516.73 -1305.85,429.59 -12.38,-2.34 -21.64,-13.26 -21.64,-26.17l0 -291.04c0,-8.55 3.67,-15.89 10.41,-21.11 6.73,-5.22 15.17,-6.71 23.1,-4.58 239.97,64.25 921.91,226.77 935.96,-96.08 2.32,-53.45 -34.01,-93.51 -86.95,-123.45 -127.42,-71.94 -300.79,-89.94 -470.02,-166.75 -181.36,-82.32 -335.6,-216.2 -317.59,-451.76 37.85,-494.58 733.42,-532.3 1255.65,-473.85 13.52,1.52 23.66,12.83 23.66,26.43l0 277.5c0,8.23 -3.35,15.31 -9.68,20.55 -6.37,5.22 -13.98,7.14 -22.04,5.57zm2310.34 714.06c-6.26,30.42 -9.69,63.42 -9.69,98.72l0 534.9c0,14.59 -12.03,26.62 -26.62,26.62l-258.78 0c-14.67,0 -26.62,-11.95 -26.62,-26.62l0 -276.67c0,-5.75 1.57,-10.68 4.9,-15.36 96.91,-136.92 197.09,-251.47 294.13,-353.47 4.13,-4.36 10.49,-5.4 15.84,-2.6 5.32,2.79 8.06,8.57 6.84,14.48z"/>
  </g>
 </g>
</svg>
