<?xml version="1.0" encoding="utf-8"?>
<svg version="1.1" xmlns="http://www.w3.org/2000/svg" xmlns:xlink="http://www.w3.org/1999/xlink" viewBox="0 0 256 256">
<style type="text/css">
	.st0{fill:none;stroke:#404040;stroke-width:9;stroke-miterlimit:10;}
	.st1{fill:#404040;}
</style>
<circle class="st0" cx="128" cy="128" r="121"/>
<path class="st1" d="M175.3,74.4L54.8,120c-6.6,1.9-6.4,8.4-1.5,10l30.2,9.4l11.6,35.4c1.4,3.9,2.6,5.3,5,5.4
	c2.5,0,3.5-0.9,6.1-3.2c3.1-2.9,7.7-7.4,15.1-14.6l31.4,23.2c5.8,3.2,10,1.5,11.4-5.4l19.7-97.4C185.8,74.4,180.9,71.9,175.3,74.4z
	 M88.3,137.2l68.6-43.1c3.4-2.3,4.4,0.3,2.9,2l-57,51.2l-2.9,25.6L88.3,137.2z"/>
</svg>
